<?xml version="1.0" standalone="no"?>
<!DOCTYPE svg PUBLIC "-//W3C//DTD SVG 20010904//EN"
 "http://www.w3.org/TR/2001/REC-SVG-20010904/DTD/svg10.dtd">
<svg version="1.0" xmlns="http://www.w3.org/2000/svg"
 width="700.000000pt" height="700.000000pt" viewBox="0 0 700.000000 700.000000"
 preserveAspectRatio="xMidYMid meet">
<metadata>
Created by potrace 1.11, written by Peter Selinger 2001-2013
</metadata>
<g transform="translate(0.000000,700.000000) scale(0.100000,-0.100000)"
fill="#000000" stroke="none">
<path d="M3380 6926 c-115 -69 -938 -544 -1010 -584 -25 -14 -49 -28 -55 -32
-9 -6 -298 -174 -380 -220 -16 -9 -113 -65 -215 -125 -102 -59 -203 -118 -225
-130 -22 -12 -138 -79 -259 -148 -120 -70 -222 -127 -227 -127 -5 0 -9 -4 -9
-10 0 -5 -4 -10 -10 -10 -8 0 -295 -163 -423 -241 -27 -16 -52 -29 -56 -29 -4
0 -15 -8 -23 -17 -12 -16 -14 -242 -14 -1758 l1 -1739 105 -62 c58 -34 238
-138 400 -231 162 -94 310 -179 327 -189 130 -75 475 -274 512 -295 130 -74
320 -185 353 -206 21 -12 40 -23 43 -23 2 0 33 -17 67 -38 35 -21 88 -52 118
-69 30 -17 228 -131 440 -253 212 -123 400 -231 418 -242 42 -24 82 -47 170
-98 l72 -42 248 142 c136 79 267 155 292 170 25 15 65 39 90 52 25 14 88 50
140 81 117 68 848 490 911 526 43 25 415 239 536 309 32 19 76 44 98 56 22 13
123 71 225 131 102 59 208 120 235 135 28 15 95 54 150 87 l100 59 0 1738 c0
1147 -3 1743 -10 1752 -10 12 -369 224 -380 224 -3 0 -18 9 -33 19 -22 15
-565 331 -712 414 -19 10 -107 61 -195 112 -88 51 -252 145 -365 210 -113 65
-270 156 -350 203 -80 47 -165 96 -190 110 -25 13 -85 48 -135 77 -49 29 -110
64 -135 78 -25 14 -151 87 -280 161 -129 75 -239 136 -245 135 -5 0 -57 -29
-115 -63z"/>
</g>
</svg>
